<svg version="1.1" id="레이어_1" xmlns="http://www.w3.org/2000/svg" x="0" y="0" viewBox="0 0 16 16" xml:space="preserve"><style>.st0{fill:#2a72e5}</style><path class="st0" d="M.21 7.3c-.05.16-.1.37-.14.53.04-.14.09-.33.4-.53.39-.52.99-.85 1.67-.86v-.01c-1.22-.31-1.58.1-1.68.29-.16.34-.19.4-.25.58m1.22-1.89l-.18.18c.2-.17.54-.14 1.07.1.1-.19.24-.38.41-.55-.25-.17-.5-.33-.66-.25-.35.26-.45.33-.64.52m2.46-1.46c-.18.07-.43.17-.61.25.04.02.16.19.26.32.26-.14.55-.28.86-.4-.06-.2-.07-.31-.01-.34l-.5.17m3-.63c-.28.03-.66.07-.94.11-.15.04-.21.09-.28.32.37-.08.75-.14 1.16-.18.11-.13.21-.25.5-.28l-.44.03m3.13.1c-.26-.04-.62-.08-.88-.1-.26-.01-.45 0-.75.2.41 0 .82.04 1.21.09.19-.08.48-.19.94-.1-.16-.03-.36-.07-.52-.09m2.84.83c-.2-.09-.46-.2-.66-.28-.48-.16-.79-.18-1.24-.07.34.1.66.21.95.34.29-.03.83-.09 1.55.33a5.7 5.7 0 00-.6-.32m2.87 2.87c-.19-.47-.26-.61-.56-1.05l-.14-.19c-.65-.76-1.29-1.08-2.15-1.09.22.16.4.33.55.52 1.43.17 2.44 1.4 2.57 3.14-.03-.34-.06-.8-.27-1.33"/><path class="st0" d="M13.81 12.49c.37-.27.45-.32.76-.61.09-.09.21-.21.29-.3 1.73-2.1.86-5.05-1.06-5.55.02.09.04.19.04.28v.05c0 .09-.01.19-.03.28 2.06.88 1.94 4.56-.19 5.97l.19-.12"/><path class="st0" d="M11.17 13.63c.26-.07.62-.18.88-.27 2.59-1.04 2.92-5.06 1.43-5.99-.14.18-.32.36-.53.52 1.27 1.34.09 5.23-2.23 5.84l.45-.1"/><path class="st0" d="M8.14 14.02l.82-.03c2.17-.27 3.62-4.29 3.06-5.53-.29.13-.6.25-.94.36.03 1.59-2.04 5.21-3.58 5.2.19-.01.45 0 .64 0m-3.16-.34l.81.17c.91.05 3.12-3.08 3.93-4.72-.39.06-.79.1-1.21.12-.64.65-2.33 2.7-2.67 3.1-.86 1.04-1.18 1.24-1.3 1.22l.44.11m-2.67-1.09c.45.27.49.29.83.46l.02.01c.04-.26 2.14-2.89 3.79-3.85-.4-.03-.79-.09-1.16-.16-1.97.81-3.95 3.19-3.6 3.47l.12.07M.84 11.22c.1.12.23.29.33.41-.47-.67 1.38-2.48 3.33-2.94a4.97 4.97 0 01-.87-.39C1.83 8.54.15 9.85.52 10.72c.09.16.21.36.32.5M0 8.74v.08c.01.15.03.35.05.5-.07-.97 1.39-1.63 2.74-1.62-.18-.17-.33-.35-.44-.54-1.14-.12-1.76.19-2.08.47C.1 7.96 0 8.34 0 8.74"/></svg>